<svg viewbox="0 0 29 44" version="1.1" xmlns="http://www.w3.org/2000/svg" xmlns:xlink="http://www.w3.org/1999/xlink"> <g id="start-arrow" stroke="none" stroke-width="1" fill="none" fill-rule="evenodd"> <g id="start" fill-rule="nonzero"> <path id="Path" d="M2.8969494,43.8809524 C2.44456845,43.7380952 1.88504464,43.202381 1.68266369,42.7261905 C1.5874256,42.5 1.51599702,41.9166667 1.51599702,41.297619 C1.51599702,40.7261905 1.40885417,39.202381 1.28980655,37.9285714 C1.01599702,35.1666667 0.873139881,33.297619 0.563616071,27.75 C0.43266369,25.4642857 0.289806548,23.4642857 0.254092262,23.3214286 C0.146949405,22.9166667 0.4921875,22.452381 0.908854167,22.452381 C1.65885417,22.452381 2.15885417,23.5714286 2.62313988,26.297619 C2.76599702,27.1309524 2.92075893,27.8095238 2.96837798,27.8095238 C3.02790179,27.8095238 3.06361607,27.7261905 3.06361607,27.6309524 C3.06361607,27.297619 4.21837798,23.9404762 4.8374256,22.452381 C6.15885417,19.3214286 8.02790179,15.952381 9.84933036,13.4047619 C13.015997,8.9761905 17.2064732,5.1309524 22.0517113,2.2261905 C25.015997,0.4404762 26.1350446,0.1071429 27.2898065,0.6666667 C28.4207589,1.2142857 28.8612351,2.547619 28.2898065,3.7261905 C27.9802827,4.3571429 27.4564732,4.7738095 26.1588542,5.4285714 C19.968378,8.5238095 14.8612351,13.202381 11.0279018,19.297619 C9.61123512,21.5595238 7.52790179,25.8452381 6.48028274,28.6547619 C6.02790179,29.8452381 5.42075893,31.8690476 5.48028274,31.9285714 C5.4921875,31.952381 5.80171131,31.5833333 6.15885417,31.1071429 C7.0874256,29.8809524 9.70647321,27.2261905 11.0636161,26.1309524 C13.2540923,24.3690476 17.1707589,21.8928571 19.0040923,21.1190476 C19.765997,20.8095238 20.0993304,20.7380952 21.0398065,20.702381 C22.0517113,20.6666667 22.218378,20.6904762 22.6350446,20.9285714 C23.3017113,21.3214286 23.5755208,21.7380952 23.6350446,22.4880952 C23.7421875,23.7857143 22.9207589,24.6666667 20.015997,26.3809524 C15.6945685,28.9166667 13.3493304,30.6071429 11.218378,32.75 C8.17075893,35.797619 6.27790179,38.8214286 5.56361607,41.7261905 C5.31361607,42.797619 4.94456845,43.4047619 4.3969494,43.6904762 C3.94456845,43.9285714 3.30171131,44.0119048 2.8969494,43.8809524 Z"></path> </g> </g> </svg>
