<svg class="reset" viewbox="0 0 60 56" version="1.1" xmlns="http://www.w3.org/2000/svg" xmlns:xlink="http://www.w3.org/1999/xlink"> <title>Path</title> <g id="reset" stroke="none" stroke-width="1" fill="none" fill-rule="evenodd"> <path id="Path" d="M16.796887,55.2585723 C15.9176606,54.9838141 15.0201171,54.1595394 14.1408907,52.8040654 C11.9428248,49.378746 4.04810472,39.7805249 1.17230182,37.0146253 C0.164854943,36.0438128 0,35.805689 0,35.2378553 C0,34.7432905 0.128220511,34.4868495 0.567833694,34.1205051 C1.24557068,33.5526715 2.14311426,33.4977198 3.20551279,33.9922846 C4.15800802,34.4318978 6.42934279,36.226985 8.68236035,38.3700992 C9.67149001,39.3042773 10.5140819,40.0552831 10.5323992,40.0186487 C10.5690336,39.9820142 10.4041786,39.2310084 10.1477376,38.3334648 C8.70067756,32.8749345 8.31601603,25.1633866 9.25019404,20.1627866 C10.6789369,12.4878731 15.1117031,6.55309518 21.9440247,3.14609301 C25.534199,1.35100585 28.8129807,0.6 33.0625747,0.6 C37.3854377,0.618317216 40.2246062,1.33268864 44.1444904,3.34758239 C46.745535,4.70305637 48.943601,6.36992302 51.4713768,8.89769881 C55.7209708,13.1839273 58.3769672,17.9464035 59.5675862,23.4415683 C60.0987855,25.9143924 60.1537371,30.9333096 59.6591723,33.2229616 C58.6517254,37.9488033 56.7650522,41.4107571 53.3214156,44.8177592 C49.3832141,48.7376435 44.2910281,51.3570053 38.8691322,52.2545489 C36.4512597,52.6392104 31.3407564,52.5476244 30.0402341,52.0713768 C27.8971199,51.3020537 27.0728451,49.2505255 28.3000986,47.7851482 C28.9228839,47.0341424 30.2050891,46.5395775 32.146714,46.2831365 C39.5651864,45.3306413 44.6024208,43.1508926 48.3940845,39.28596 C54.8600617,32.6917623 53.9075665,22.2143148 46.1044325,14.0997881 C40.7741227,8.58630614 35.4071784,6.62636404 29.1060561,7.92688637 C25.4426129,8.65957501 22.3653206,10.3264417 19.7825932,12.9274863 C16.1557844,16.5726123 14.4706006,21.4449917 14.4706006,28.2406788 C14.4706006,31.904122 15.3131925,38.4067337 15.7711229,38.4067337 C15.862709,38.4067337 15.9359779,38.2601959 15.9359779,38.095341 C15.9359779,37.9121688 16.1741017,36.8131359 16.4854943,35.6591513 C17.6761134,30.9516268 19.3796144,26.9035221 21.4677771,23.7529609 C23.5742569,20.5840826 24.8198276,19.5400013 26.5233287,19.5400013 C27.402555,19.5400013 27.5857272,19.6132701 28.1535609,20.1811038 L28.8129807,20.8405236 L28.7030774,22.2509492 C28.6298085,23.423251 28.4283191,24.100988 27.5124583,26.3173712 C23.9406012,34.9997315 22.2737346,41.7221498 21.8158042,49.3604288 C21.6692664,51.7783013 21.5593631,52.5109899 21.2479705,53.1520925 C20.3870613,54.9288624 18.5736569,55.7897716 16.796887,55.2585723 Z" fill-rule="nonzero"></path> </g> </svg>
